<svg xmlns="http://www.w3.org/2000/svg" viewBox="0 0 36 36" fill="none">
  <path d="M19.9192 22.2622L22.5726 24.8238C23.1162 25.3474 23.1162 26.1978 22.5726 26.722C22.0296 27.2462 21.1495 27.2462 20.607 26.722L17.9982 24.2048L15.3916 26.722C15.1198 26.9838 14.7636 27.1149 14.4075 27.1149C14.0519 27.1149 13.6964 26.9838 13.4246 26.722C12.8816 26.1978 12.8816 25.348 13.424 24.8238L16.0777 22.2622C15.1115 22.0497 14.1797 21.6802 13.3215 21.1604C12.672 20.7651 12.4768 19.9369 12.8861 19.3094C13.2942 18.681 14.1525 18.4919 14.8031 18.8872C16.7463 20.0671 19.2495 20.0674 21.1938 18.8872C21.8444 18.4919 22.7024 18.681 23.1114 19.3094C23.5206 19.9364 23.3249 20.7651 22.6754 21.1604C21.8172 21.6807 20.8853 22.0497 19.9192 22.2622Z" fill="currentColor"/>
  <path fill-rule="evenodd" clip-rule="evenodd" d="M13.2402 13.9419C13.2402 16.4679 15.3691 18.5226 17.9867 18.5226C20.605 18.5226 22.7333 16.4679 22.7333 13.9419C22.7333 11.4151 20.605 9.35986 17.9867 9.35986C15.3691 9.35986 13.2402 11.4151 13.2402 13.9419ZM19.952 13.9414C19.952 12.8953 19.0704 12.0446 17.9867 12.0446C16.9037 12.0446 16.0213 12.8953 16.0213 13.9414C16.0213 14.9868 16.9037 15.838 17.9867 15.838C19.0704 15.838 19.952 14.9868 19.952 13.9414Z" fill="currentColor"/>
</svg>
